HIERARCHY
ROOT Hips
{
  OFFSET -33.9132 29.2015 117.021
  CHANNELS 6 Xposition Yposition Zposition Zrotation Xrotation Yrotation
  JOINT LeftUpLeg
  {
    OFFSET 8.64259 1.95398 -2.38835
    CHANNELS 3 Zrotation Xrotation Yrotation
    JOINT LeftLeg
    {
      OFFSET 43.7702 0 0
      CHANNELS 3 Zrotation Xrotation Yrotation
      JOINT LeftFoot
      {
        OFFSET 40.6238 0 0
        CHANNELS 3 Zrotation Xrotation Yrotation
        JOINT LeftToeBase
        {
          OFFSET 12.7242 0 0
          CHANNELS 3 Zrotation Xrotation Yrotation
          End Site
          {
            OFFSET 0 0 0
          }
        }
      }
    }
  }
  JOINT RightUpLeg
  {
    OFFSET -8.2249 1.95398 -2.59336
    CHANNELS 3 Zrotation Xrotation Yrotation
    JOINT RightLeg
    {
      OFFSET 43.5653 0 0
      CHANNELS 3 Zrotation Xrotation Yrotation
      JOINT RightFoot
      {
        OFFSET 40.6238 0 0
        CHANNELS 3 Zrotation Xrotation Yrotation
        JOINT RightToeBase
        {
          OFFSET 12.7242 0 0
          CHANNELS 3 Zrotation Xrotation Yrotation
          End Site
          {
            OFFSET 0 0 0
          }
        }
      }
    }
  }
  JOINT Spine
  {
    OFFSET 0.165834 0.87714 6.61349
    CHANNELS 3 Zrotation Xrotation Yrotation
    JOINT Spine1
    {
      OFFSET 7.38963 1.71661e-005 0
      CHANNELS 3 Zrotation Xrotation Yrotation
      JOINT Spine2
      {
        OFFSET 11.9445 1.14441e-005 0
        CHANNELS 3 Zrotation Xrotation Yrotation
        JOINT Spine3
        {
          OFFSET 14.7254 4.19617e-005 0
          CHANNELS 3 Zrotation Xrotation Yrotation
          JOINT Spine4
          {
            OFFSET 10.9679 0 0
            CHANNELS 3 Zrotation Xrotation Yrotation
            JOINT RightShoulder
            {
              OFFSET 2.46616 -1.6653 3.69651
              CHANNELS 3 Zrotation Xrotation Yrotation
              JOINT RightArm
              {
                OFFSET 13.0012 0 0
                CHANNELS 3 Zrotation Xrotation Yrotation
                JOINT RightForeArm
                {
                  OFFSET 28.7848 1.62311e-005 0
                  CHANNELS 3 Zrotation Xrotation Yrotation
                  JOINT RightHand
                  {
                    OFFSET 26.5688 1.62095e-005 0
                    CHANNELS 3 Zrotation Xrotation Yrotation
                    End Site
                    {
                      OFFSET 0 0 0
                    }
                  }
                }
              }
            }
            JOINT LeftShoulder
            {
              OFFSET 2.38034 -1.29275 -3.7523
              CHANNELS 3 Zrotation Xrotation Yrotation
              JOINT LeftArm
              {
                OFFSET 16.3182 6.07031e-005 0
                CHANNELS 3 Zrotation Xrotation Yrotation
                JOINT LeftForeArm
                {
                  OFFSET 27.0901 0 0
                  CHANNELS 3 Zrotation Xrotation Yrotation
                  JOINT LeftHand
                  {
                    OFFSET 24.5451 1.51738e-005 0
                    CHANNELS 3 Zrotation Xrotation Yrotation
                    End Site
                    {
                      OFFSET 0 0 0
                    }
                  }
                }
              }
            }
            JOINT Neck
            {
              OFFSET 5.0226 -0.0266342 0
              CHANNELS 3 Zrotation Xrotation Yrotation
              JOINT Head
              {
                OFFSET 6.69364 2.86102e-005 0
                CHANNELS 3 Zrotation Xrotation Yrotation
                End Site
                {
                  OFFSET 0 0 0
                }
              }
            }
          }
        }
      }
    }
  }
}
MOTION
Frames:	15
Frame Time:	0.0416667
-27.4051 86.3846 64.8613 -85.7365 -43.5789 -94.8666 -171.689 45.6816 93.2047 -110.514 8.11684 4.3335 73.5974 10.5769 9.71169 22.1366 -1.23572 -3.80966 174.116 6.41075 99.1533 -49.906 -14.3196 1.34576 95.8786 -29.4253 -5.94434 17.4143 2.28578 8.43984 1.64653 7.99788 -90.2603 10.8928 3.1579 -0.815608 -0.774687 3.11895 -0.95392 -23.3408 3.25687 0.172187 -3.32813 3.25687 0.172189 89.2744 -22.9577 -111.368 25.5768 5.88084 4.36807 -28.7103 7.80131 -109.331 -49.3392 16.6501 -40.9584 -86.5385 -48.0605 83.6118 -20.917 10.3542 20.7581 60.2146 29.778 -69.8299 65.2131 -19.5347 -26.6179 28.664 -0.989974 7.18134 -7.75516 -3.64756 -2.07153 
-31.9212 87.3859 71.2983 -84.6166 -42.2928 -96.1686 -171.209 50.0117 90.3657 -102.483 4.61667 3.86834 77.0812 12.0147 7.94115 25.2056 -0.148341 -3.2903 173.5 -0.489298 95.0339 -44.0393 -14.9231 0.0745184 92.9701 -26.7374 -5.06698 23.6639 -0.191077 8.6907 2.1684 7.93354 -89.8008 11.014 4.40901 -0.0257159 -0.649444 4.40361 -0.220139 -23.241 4.21254 1.30297 -3.22832 4.21252 1.30295 90.2467 -20.5836 -110.397 25.3124 7.88141 4.39985 -28.6287 9.31287 -112.267 -55.5556 17.7331 -38.5437 -85.7994 -47.057 84.5975 -20.268 10.6499 29.2693 61.3076 29.1665 -70.2848 66.0114 -21.2981 -28.6627 29.0281 -3.85772 5.73039 -8.48645 -5.82002 -2.15865 
-37.4764 89.278 77.9905 -84.5187 -41.6084 -98.402 -170.64 50.4841 87.8239 -90.5202 2.0101 2.75283 80.1393 12.9791 4.65369 20.4432 -2.23811 -3.26268 172.785 -7.49818 90.8764 -36.9817 -19.0819 -1.8296 82.4686 -19.5054 -8.07199 30.069 -2.66874 9.25656 2.71279 7.93237 -89.2627 10.9952 5.74214 0.919773 -0.663203 5.77703 0.665315 -23.2832 5.19959 2.6073 -3.27055 5.1996 2.60729 91.6695 -18.1716 -108.271 24.993 7.7826 8.43354 -27.9484 11.036 -116.077 -61.9121 18.1292 -35.2443 -85.4837 -43.4646 84.5404 -20.932 9.67254 36.4142 59.7415 25.9969 -69.6715 63.3049 -21.5043 -30.6759 28.6161 -7.3513 3.58799 -8.58361 -8.28869 -2.39037 
-43.4897 91.1512 84.8788 -85.1599 -41.8079 -101.061 -171.064 48.1608 85.7443 -77.0896 1.28676 1.11871 81.571 12.9489 1.10981 19.887 -3.87766 -0.562083 172.18 -14.3183 87.5847 -30.0243 -20.1516 -3.99622 70.2876 -9.07169 -7.38617 32.8325 -4.22536 12.0855 3.09933 7.99543 -88.7913 10.8396 6.72927 1.77557 -0.814674 6.80085 1.4764 -23.4534 5.88387 3.72154 -3.44079 5.88387 3.72153 92.672 -16.2167 -106.77 24.786 7.41372 14.0441 -24.342 10.8066 -119.591 -62.5322 20.3075 -38.3886 -85.5327 -40.5729 83.9811 -21.1951 8.42762 42.5013 65.2231 27.2113 -71.5687 73.9089 -30.1767 -35.1416 29.1638 -10.2294 2.66317 -10.5566 -10.5218 -4.27905 
-49.5192 92.4798 91.8014 -84.8919 -43.0003 -102.929 -172.271 45.7628 84.025 -62.487 5.89151 -0.82997 77.8626 11.4094 1.83186 24.2351 -2.46393 0.765266 171.638 -18.4615 85.4157 -26.9247 -19.5379 -5.68497 62.5271 -1.77046 -3.38221 20.7037 0.691763 9.56135 3.32514 8.00956 -88.3078 10.7761 7.40165 2.6807 -0.875747 7.51239 2.35079 -23.5183 6.25359 4.78687 -3.50563 6.25359 4.78687 93.4724 -14.317 -105.648 24.633 6.77428 20.0843 -21.7672 10.451 -122.269 -61.7611 21.796 -41.2314 -85.4841 -36.3659 83.3057 -21.4721 6.76814 45.9518 55.7721 23.7372 -68.4557 71.6379 -33.2971 -41.3469 30.5938 -12.9427 1.56505 -13.8073 -12.4386 -5.76514 
-55.2329 93.1976 98.5517 -84.3112 -44.2306 -103.702 -173.48 43.3636 82.9985 -48.202 10.9834 -2.52396 74.3414 9.3717 0.51673 29.1978 -1.51736 4.07799 171.77 -20.8567 85.0974 -28.7786 -17.9331 -6.76635 62.4978 -1.18798 -2.67414 12.4764 4.90821 6.81661 3.4497 7.98546 -87.9591 10.7926 7.81029 3.33483 -0.858189 7.94942 2.98619 -23.4977 6.44737 5.53297 -3.48504 6.44738 5.53297 93.9716 -13.0958 -104.918 24.6015 5.47289 23.4457 -23.0197 11.3081 -122.361 -62.7843 21.8641 -40.6615 -85.8429 -34.0006 82.1886 -22.7046 6.96452 48.4151 58.09 24.8997 -68.8327 67.827 -24.6805 -32.4784 30.2636 -14.8639 0.540216 -14.5798 -13.7736 -6.43475 
-60.5379 93.4481 105.097 -83.7056 -46.0969 -102.827 -174.609 41.232 82.5754 -35.7321 15.9547 -3.58093 70.2093 6.77433 0.176713 31.8003 -0.145047 3.88502 172.032 -22.3312 86.4205 -32.7731 -16.6831 -5.68704 65.873 -4.0527 -3.88034 15.8866 3.42147 6.9891 3.39899 7.92926 -87.933 10.9043 7.72252 3.38519 -0.747089 7.86392 3.04043 -23.3815 6.34863 5.55417 -3.36886 6.34862 5.55416 94.4631 -12.7049 -103.769 24.5555 2.16084 23.7975 -26.9049 12.8736 -120.5 -66.1654 19.7304 -35.3739 -86.7187 -36.6197 81.1714 -18.9979 7.779 49.0732 57.4953 22.8869 -69.174 66.7375 -25.2077 -33.9656 29.4332 -15.7651 0.380301 -13.4828 -14.6446 -6.40976 
-65.5873 93.1844 111.49 -83.1648 -48.0073 -100.565 -174.519 39.537 82.3858 -27.7812 19.5915 -4.55338 71.104 7.65194 1.29619 30.5515 -1.08824 4.65638 173.875 -21.7916 90.1529 -39.7923 -14.3281 -4.16553 65.6713 -4.06211 -3.65676 16.4397 3.00605 7.49287 3.29825 7.77336 -88.1311 11.2364 7.4332 2.98879 -0.415856 7.55746 2.65725 -23.0509 6.19141 5.08944 -3.03828 6.19142 5.08944 93.9947 -13.7535 -104.533 25.4063 -0.0901183 24.268 -27.9903 11.6206 -117.097 -62.881 19.067 -36.209 -87.8103 -40.1241 80.0475 -16.3188 9.09192 46.9444 54.2105 21.9143 -68.0484 65.4652 -25.4412 -35.2939 27.252 -16.336 -0.394324 -11.2406 -15.1717 -4.85221 
-70.6048 92.7036 117.65 -85.0326 -49.6146 -100.134 -174.345 36.7621 82.2859 -25.7824 16.7856 -4.79079 75.5278 10.1747 -0.573375 25.4387 -4.41386 6.1307 174.053 -20.5017 92.6423 -50.0164 -13.556 -2.45506 65.1381 -3.62584 -2.83283 17.0596 2.18881 9.08966 3.12336 7.75849 -88.3702 11.2865 6.97429 2.55326 -0.367539 7.07986 2.24254 -22.9973 5.88434 4.53591 -2.98459 5.88435 4.5359 92.7927 -16.0758 -106.535 27.1311 -3.66257 24.7922 -27.3954 8.93283 -112.57 -61.6986 16.8429 -33.2709 -88.3182 -42.942 79.8271 -15.5045 10.7494 41.8286 51.8599 22.6231 -66.5146 66.4529 -25.9102 -35.3689 25.3909 -16.4406 -1.74982 -10.6438 -14.9545 -3.49929 
-75.7619 91.9365 123.813 -88.9446 -51.1297 -101.873 -174.483 32.2504 82.1241 -26.1686 12.9079 -4.39464 75.8039 10.118 -1.31075 27.6321 -3.40492 6.51728 172.429 -18.87 93.4205 -62.0533 -13.3427 -1.08801 65.1051 -3.43931 -2.10516 15.5871 2.54475 9.65038 2.81071 7.90326 -88.5868 11.0126 6.24998 2.21416 -0.644703 6.34133 1.936 -23.2574 5.29542 3.99364 -3.24472 5.29543 3.99364 91.5803 -18.6481 -108.248 30.0001 -5.8744 23.4423 -23.6426 4.36055 -105.138 -53.9531 15.6151 -35.6814 -89.2646 -45.5698 78.8892 -15.9375 11.812 35.373 54.747 25.7537 -66.6209 67.955 -24.9429 -32.8705 23.0998 -15.6179 -3.10258 -9.78274 -13.8369 -3.0747 
-80.7457 91.5088 129.79 -92.8917 -52.5005 -104.566 -175.473 30.6152 82.4747 -31.6537 14.0153 -3.57541 68.3881 4.53804 -0.845072 22.4122 -3.83919 1.70943 168.968 -15.8966 92.1592 -73.7009 -10.969 -0.251183 64.5879 -3.93013 -3.79559 12.1282 3.05607 11.6715 2.3755 8.03369 -88.6892 10.7595 5.33471 2.11393 -0.901827 5.42254 1.87654 -23.4889 4.45277 3.62133 -3.47619 4.45278 3.62133 90.5049 -22.0133 -109.099 33.5969 -7.11013 21.2114 -17.2836 1.20921 -94.9251 -41.3663 13.7311 -41.0178 -90.4506 -48.1256 77.6308 -14.6097 12.0962 26.0842 53.0046 29.0416 -65.0463 63.4614 -24.4125 -35.0644 19.9956 -14.5236 -5.33283 -8.06616 -12.3116 -2.09913 
-85.5081 90.521 135.538 -96.0831 -52.8039 -108.226 -175.407 28.8053 81.593 -37.7931 14.9182 -2.93977 62.5836 0.795022 0.87459 20.4789 -2.25099 -4.01744 165.06 -10.8197 89.2786 -86.1213 -5.10758 -0.863529 65.2988 -5.19699 -4.63277 12.6047 3.55427 9.994 1.88546 8.2658 -88.6102 10.2946 4.39173 2.38285 -1.37071 4.49233 2.18701 -23.9293 3.47285 3.59292 -3.91661 3.47287 3.59292 89.8663 -24.7578 -109.233 37.234 -8.2424 19.488 -15.3041 -2.58544 -85.7809 -37.345 12.0676 -40.4737 -91.5899 -50.6367 76.5091 -13.5842 15.6187 13.3448 51.7033 31.5399 -63.8484 65.4951 -23.1146 -31.8703 18.3195 -13.136 -6.82691 -5.97428 -10.6713 -1.46498 
-89.8286 88.9524 140.844 -98.0146 -53.2771 -111.636 -173.601 27.1674 79.7516 -47.0237 15.1396 -3.12046 72.1442 7.95518 1.07145 22.2951 -3.91371 1.53579 162.31 -2.03911 86.0575 -98.6345 1.95387 -2.25045 66.2262 -6.24133 -5.28611 12.5576 3.75453 9.54214 1.33252 8.51721 -88.4257 9.78968 3.36917 2.85433 -1.87973 3.49149 2.70327 -24.4091 2.35624 3.73433 -4.39645 2.35624 3.73433 88.9039 -27.9484 -109.8 39.9189 -8.1749 22.9121 -12.9982 -2.19403 -81.0306 -38.629 12.2838 -39.8669 -92.7032 -53.2506 75.5168 -8.37633 16.5681 -4.26296 56.379 36.8033 -66.5742 65.1839 -20.2339 -27.554 19.0144 -11.9636 -7.60968 -4.82569 -9.26307 -1.16894 
-93.9995 88.2638 145.617 -99.7688 -52.2362 -115.779 -172.181 21.6708 78.2538 -49.8551 15.2628 -3.88485 80.9265 13.7692 -0.706067 18.4842 -7.36219 4.5024 163.66 7.14507 84.3879 -109.024 3.1052 -3.61254 66.18 -7.43955 -7.16189 10.6167 4.98903 8.4477 0.816276 8.8697 -88.0975 9.08166 2.47823 3.59378 -2.59159 2.6339 3.48136 -25.0935 1.28467 4.1715 -5.08081 1.28466 4.1715 88.3576 -28.704 -110.564 42.1266 -8.29423 30.8659 -13.0495 -2.16655 -81.581 -38.1706 11.4798 -38.1072 -93.0038 -53.0209 75.0292 -3.63494 14.5176 -22.9786 57.4581 40.9366 -68.7486 69.8716 -18.3698 -22.377 21.6943 -10.6507 -8.35627 -4.68725 -7.53974 -0.735666 
-98.3748 87.853 150.439 -100.308 -51.2326 -115.39 -171.946 16.6704 80.1837 -50.7785 15.0593 -3.49611 82.6496 15.6929 0.744483 29.9708 0.125674 0.999063 167.236 16.4449 86.2821 -115.409 -0.890676 -4.02183 65.2272 -7.84181 -10.1675 9.63262 4.52817 10.4094 0.393244 9.03901 -88.2146 8.75975 1.57747 3.4295 -2.91454 1.7268 3.35685 -25.4148 0.474625 3.74458 -5.40212 0.474652 3.74459 90.3428 -27.1405 -107.194 48.5072 -15.1248 35.9645 -0.500926 0.298236 -81.3006 -37.4173 12.7948 -42.4473 -93.4212 -50.0695 73.6583 -2.65701 9.75345 -36.8734 52.9323 41.1498 -66.7331 70.7318 -21.8028 -26.7043 23.6781 -8.54579 -6.9214 -4.98612 -5.8134 -1.35368 
